<svg width="90" height="28" viewBox="0 0 90 28" fill="none" xmlns="http://www.w3.org/2000/svg">
<path d="M38.6367 4.52633C38.8945 4.52636 39.1414 4.61397 39.377 4.78805C39.6125 4.96213 39.7658 5.1786 39.8369 5.43746L41.584 11.1162C42.0196 12.5089 42.4621 13.473 42.9111 14.0088C43.3601 14.5445 43.8914 14.8125 44.5049 14.8125L47.1592 5.43746C47.2303 5.17858 47.3702 4.96213 47.5791 4.78805C47.788 4.61397 48.0215 4.52633 48.2793 4.52633H51.0928C51.3151 4.52633 51.4802 4.59831 51.5869 4.74117C51.6934 4.88378 51.747 5.00201 51.7471 5.09566C51.7471 5.18931 51.7375 5.26757 51.7197 5.33004L48.2256 17.8388C47.6033 20.0529 46.8322 21.6336 45.9121 22.58C44.9919 23.5265 43.8067 24 42.3574 24L41.8008 23.997C40.6429 23.9847 39.8033 23.9317 39.2832 23.8388C38.6832 23.7317 38.3074 23.6005 38.1562 23.4443C38.0051 23.2881 37.9297 23.1067 37.9297 22.9013V21.4287C37.9297 21.1878 38.0053 20.9892 38.1562 20.833C38.3074 20.6767 38.5032 20.5986 38.7432 20.5986H39.2363L40.9834 20.8261C42.0445 20.8261 42.8358 20.1639 43.3555 18.8398C43.4006 18.7248 41.4682 18.8764 39.8369 16.833C38.2056 14.7894 38.104 14.1272 37.375 11.788L35.3877 5.3193C35.361 5.24787 35.3477 5.165 35.3477 5.07125C35.3477 4.97754 35.4036 4.86328 35.5146 4.72945C35.6258 4.59585 35.7926 4.5245 36.0146 4.51559L38.6367 4.52633ZM59.8428 4.25875C61.9585 4.25887 63.6564 4.73476 64.9365 5.68551C66.2167 6.63632 66.8573 8.10689 66.8574 10.0976V18.3886C66.8573 18.6294 66.7817 18.8258 66.6309 18.9775C66.4798 19.1292 66.2838 19.205 66.0439 19.205H63.4697C63.2298 19.205 63.0339 19.1268 62.8828 18.9707C62.7319 18.8145 62.6563 18.6205 62.6562 18.3886V17.9726C61.2515 18.9815 59.6308 19.4838 57.7949 19.4795C55.9592 19.4749 54.45 19.0624 53.2676 18.2412C52.0939 17.4197 51.5068 16.2588 51.5068 14.7588C51.5069 13.2588 52.0964 12.1072 53.2744 11.3037C54.4524 10.5004 55.9703 10.0977 57.8281 10.0976H62.2432C62.2431 9.05352 62.0252 8.3257 61.5898 7.915C61.1542 7.50432 60.3908 7.29883 59.3018 7.29879C58.2856 7.29885 57.5517 7.5345 57.1006 8.00484L57.0078 8.10934C56.5675 8.64905 55.1827 8.46565 53.9463 8.2275C52.7099 7.98933 52.6291 7.3587 52.7393 7.03024C53.3603 5.18297 55.7285 4.25875 59.8428 4.25875ZM7.80176 4.25875C10.2468 4.25875 12.1542 4.89942 13.5234 6.18063C14.8926 7.46178 15.577 9.29877 15.5771 11.6914V12.455C15.5771 12.696 15.4992 12.8945 15.3438 13.0507C15.1882 13.207 14.9901 13.2851 14.75 13.2851H4.70801C4.79692 14.3833 5.11056 15.1826 5.64844 15.6826C6.18632 16.1825 7.04614 16.4325 8.22852 16.4326C9.41105 16.4326 10.2206 16.1646 10.6562 15.6289C11.092 15.0936 11.9267 15.1759 13.2139 15.3564C14.5008 15.5369 14.7913 16.2171 14.75 16.4326C14.3416 18.5419 12.2022 19.4806 7.78906 19.4726C5.33509 19.4726 3.42296 18.8211 2.05371 17.5175C0.684609 16.214 0 14.3365 0 11.8857C7.85005e-05 9.435 0.689323 7.55123 2.06738 6.23434C3.44547 4.91747 5.35685 4.25879 7.80176 4.25875ZM21.832 -3.8147e-05C22.0631 -3.8147e-05 22.2565 0.0781855 22.4121 0.234337C22.5676 0.390527 22.6454 0.589093 22.6455 0.83004V6.20113C24.1748 4.90648 25.8048 4.25875 27.5342 4.25875C29.2633 4.25884 30.6703 4.78778 31.7549 5.84566C32.8396 6.90371 33.3818 8.52255 33.3818 10.7011V18.3886C33.3818 18.6206 33.3039 18.8145 33.1484 18.9707C32.9928 19.1269 32.7948 19.205 32.5547 19.205H29.5811C29.3499 19.205 29.1566 19.1269 29.001 18.9707C28.8455 18.8145 28.7676 18.6206 28.7676 18.3886V10.7011C28.7676 8.56719 27.9179 7.915 26.2197 7.915C25.1084 7.91522 23.9168 9.05728 22.6455 10.3339V18.3886C22.6454 18.6207 22.5676 18.8145 22.4121 18.9707C22.2565 19.1269 22.0632 19.205 21.832 19.205H18.8447C18.6136 19.205 18.4202 19.1269 18.2646 18.9707C18.1092 18.8145 18.0313 18.6206 18.0312 18.3886V0.83004C18.0313 0.589101 18.1091 0.390525 18.2646 0.234337C18.4202 0.0781085 18.6136 -1.56832e-05 18.8447 -3.8147e-05H21.832ZM58.1484 13.1377C57.5262 13.1377 57.0349 13.2903 56.6748 13.5937C56.3148 13.8972 56.1348 14.2904 56.1348 14.7724C56.1349 15.2544 56.322 15.6514 56.6953 15.9638C57.0687 16.2762 57.5978 16.4326 58.2822 16.4326C59.6512 16.4325 60.9719 16.031 62.2432 15.2275V13.1377H58.1484ZM7.79492 7.29879C5.82584 7.29894 4.78837 8.35302 4.68164 10.4599H10.8828C10.7939 8.35286 9.76428 7.29879 7.79492 7.29879Z" fill="white"/>
<path fill-rule="evenodd" clip-rule="evenodd" d="M73.7143 12C75.6078 12 77.1428 10.4649 77.1428 8.57139C77.1428 6.67785 75.6078 5.14282 73.7143 5.14282C71.8207 5.14282 70.2857 6.67785 70.2857 8.57139C70.2857 10.4649 71.8207 12 73.7143 12Z" fill="#005490"/>
</svg>
